<?xml version="1.0" encoding="utf-8"?>
<!-- Generator: Adobe Illustrator 24.3.0, SVG Export Plug-In . SVG Version: 6.00 Build 0)  -->
<svg version="1.1" id="logoAtCenter" xmlns:svg="http://www.w3.org/2000/svg"
	 xmlns="http://www.w3.org/2000/svg" xmlns:xlink="http://www.w3.org/1999/xlink" x="0px" y="0px" viewBox="0 0 2100 2100"
	 style="enable-background:new 0 0 2100 2100;" xml:space="preserve">
<style type="text/css">
	.st0{fill:#FFFCEA;}
	.st1{fill:#400000;}
</style>
<rect id="bgbar" class="st0" width="2100" height="2100"/>
<g id="group_code">
	<rect id="rect_0_0" x="180" y="180" class="st1" width="60" height="60"/>
	<rect id="rect_1_0" x="240" y="180" class="st1" width="60" height="60"/>
	<rect id="rect_2_0" x="300" y="180" class="st1" width="60" height="60"/>
	<rect id="rect_3_0" x="360" y="180" class="st1" width="60" height="60"/>
	<rect id="rect_4_0" x="420" y="180" class="st1" width="60" height="60"/>
	<rect id="rect_5_0" x="480" y="180" class="st1" width="60" height="60"/>
	<rect id="rect_6_0" x="540" y="180" class="st1" width="60" height="60"/>
	<rect id="rect_8_0" x="660" y="180" class="st1" width="60" height="60"/>
	<rect id="rect_9_0" x="720" y="180" class="st1" width="60" height="60"/>
	<rect id="rect_12_0" x="900" y="180" class="st1" width="60" height="60"/>
	<rect id="rect_13_0" x="960" y="180" class="st1" width="60" height="60"/>
	<rect id="rect_15_0" x="1080" y="180" class="st1" width="60" height="60"/>
	<rect id="rect_22_0" x="1500" y="180" class="st1" width="60" height="60"/>
	<rect id="rect_23_0" x="1560" y="180" class="st1" width="60" height="60"/>
	<rect id="rect_24_0" x="1620" y="180" class="st1" width="60" height="60"/>
	<rect id="rect_25_0" x="1680" y="180" class="st1" width="60" height="60"/>
	<rect id="rect_26_0" x="1740" y="180" class="st1" width="60" height="60"/>
	<rect id="rect_27_0" x="1800" y="180" class="st1" width="60" height="60"/>
	<rect id="rect_28_0" x="1860" y="180" class="st1" width="60" height="60"/>
	<rect id="rect_0_1" x="180" y="240" class="st1" width="60" height="60"/>
	<rect id="rect_6_1" x="540" y="240" class="st1" width="60" height="60"/>
	<rect id="rect_8_1" x="660" y="240" class="st1" width="60" height="60"/>
	<rect id="rect_11_1" x="840" y="240" class="st1" width="60" height="60"/>
	<rect id="rect_13_1" x="960" y="240" class="st1" width="60" height="60"/>
	<rect id="rect_14_1" x="1020" y="240" class="st1" width="60" height="60"/>
	<rect id="rect_15_1" x="1080" y="240" class="st1" width="60" height="60"/>
	<rect id="rect_17_1" x="1200" y="240" class="st1" width="60" height="60"/>
	<rect id="rect_20_1" x="1380" y="240" class="st1" width="60" height="60"/>
	<rect id="rect_22_1" x="1500" y="240" class="st1" width="60" height="60"/>
	<rect id="rect_28_1" x="1860" y="240" class="st1" width="60" height="60"/>
	<rect id="rect_0_2" x="180" y="300" class="st1" width="60" height="60"/>
	<rect id="rect_2_2" x="300" y="300" class="st1" width="60" height="60"/>
	<rect id="rect_3_2" x="360" y="300" class="st1" width="60" height="60"/>
	<rect id="rect_4_2" x="420" y="300" class="st1" width="60" height="60"/>
	<rect id="rect_6_2" x="540" y="300" class="st1" width="60" height="60"/>
	<rect id="rect_8_2" x="660" y="300" class="st1" width="60" height="60"/>
	<rect id="rect_9_2" x="720" y="300" class="st1" width="60" height="60"/>
	<rect id="rect_10_2" x="780" y="300" class="st1" width="60" height="60"/>
	<rect id="rect_12_2" x="900" y="300" class="st1" width="60" height="60"/>
	<rect id="rect_14_2" x="1020" y="300" class="st1" width="60" height="60"/>
	<rect id="rect_15_2" x="1080" y="300" class="st1" width="60" height="60"/>
	<rect id="rect_16_2" x="1140" y="300" class="st1" width="60" height="60"/>
	<rect id="rect_22_2" x="1500" y="300" class="st1" width="60" height="60"/>
	<rect id="rect_24_2" x="1620" y="300" class="st1" width="60" height="60"/>
	<rect id="rect_25_2" x="1680" y="300" class="st1" width="60" height="60"/>
	<rect id="rect_26_2" x="1740" y="300" class="st1" width="60" height="60"/>
	<rect id="rect_28_2" x="1860" y="300" class="st1" width="60" height="60"/>
	<rect id="rect_0_3" x="180" y="360" class="st1" width="60" height="60"/>
	<rect id="rect_2_3" x="300" y="360" class="st1" width="60" height="60"/>
	<rect id="rect_3_3" x="360" y="360" class="st1" width="60" height="60"/>
	<rect id="rect_4_3" x="420" y="360" class="st1" width="60" height="60"/>
	<rect id="rect_6_3" x="540" y="360" class="st1" width="60" height="60"/>
	<rect id="rect_9_3" x="720" y="360" class="st1" width="60" height="60"/>
	<rect id="rect_10_3" x="780" y="360" class="st1" width="60" height="60"/>
	<rect id="rect_12_3" x="900" y="360" class="st1" width="60" height="60"/>
	<rect id="rect_16_3" x="1140" y="360" class="st1" width="60" height="60"/>
	<rect id="rect_17_3" x="1200" y="360" class="st1" width="60" height="60"/>
	<rect id="rect_18_3" x="1260" y="360" class="st1" width="60" height="60"/>
	<rect id="rect_20_3" x="1380" y="360" class="st1" width="60" height="60"/>
	<rect id="rect_22_3" x="1500" y="360" class="st1" width="60" height="60"/>
	<rect id="rect_24_3" x="1620" y="360" class="st1" width="60" height="60"/>
	<rect id="rect_25_3" x="1680" y="360" class="st1" width="60" height="60"/>
	<rect id="rect_26_3" x="1740" y="360" class="st1" width="60" height="60"/>
	<rect id="rect_28_3" x="1860" y="360" class="st1" width="60" height="60"/>
	<rect id="rect_0_4" x="180" y="420" class="st1" width="60" height="60"/>
	<rect id="rect_2_4" x="300" y="420" class="st1" width="60" height="60"/>
	<rect id="rect_3_4" x="360" y="420" class="st1" width="60" height="60"/>
	<rect id="rect_4_4" x="420" y="420" class="st1" width="60" height="60"/>
	<rect id="rect_6_4" x="540" y="420" class="st1" width="60" height="60"/>
	<rect id="rect_11_4" x="840" y="420" class="st1" width="60" height="60"/>
	<rect id="rect_13_4" x="960" y="420" class="st1" width="60" height="60"/>
	<rect id="rect_15_4" x="1080" y="420" class="st1" width="60" height="60"/>
	<rect id="rect_16_4" x="1140" y="420" class="st1" width="60" height="60"/>
	<rect id="rect_17_4" x="1200" y="420" class="st1" width="60" height="60"/>
	<rect id="rect_19_4" x="1320" y="420" class="st1" width="60" height="60"/>
	<rect id="rect_22_4" x="1500" y="420" class="st1" width="60" height="60"/>
	<rect id="rect_24_4" x="1620" y="420" class="st1" width="60" height="60"/>
	<rect id="rect_25_4" x="1680" y="420" class="st1" width="60" height="60"/>
	<rect id="rect_26_4" x="1740" y="420" class="st1" width="60" height="60"/>
	<rect id="rect_28_4" x="1860" y="420" class="st1" width="60" height="60"/>
	<rect id="rect_0_5" x="180" y="480" class="st1" width="60" height="60"/>
	<rect id="rect_6_5" x="540" y="480" class="st1" width="60" height="60"/>
	<rect id="rect_8_5" x="660" y="480" class="st1" width="60" height="60"/>
	<rect id="rect_9_5" x="720" y="480" class="st1" width="60" height="60"/>
	<rect id="rect_11_5" x="840" y="480" class="st1" width="60" height="60"/>
	<rect id="rect_12_5" x="900" y="480" class="st1" width="60" height="60"/>
	<rect id="rect_13_5" x="960" y="480" class="st1" width="60" height="60"/>
	<rect id="rect_14_5" x="1020" y="480" class="st1" width="60" height="60"/>
	<rect id="rect_16_5" x="1140" y="480" class="st1" width="60" height="60"/>
	<rect id="rect_17_5" x="1200" y="480" class="st1" width="60" height="60"/>
	<rect id="rect_20_5" x="1380" y="480" class="st1" width="60" height="60"/>
	<rect id="rect_22_5" x="1500" y="480" class="st1" width="60" height="60"/>
	<rect id="rect_28_5" x="1860" y="480" class="st1" width="60" height="60"/>
	<rect id="rect_0_6" x="180" y="540" class="st1" width="60" height="60"/>
	<rect id="rect_1_6" x="240" y="540" class="st1" width="60" height="60"/>
	<rect id="rect_2_6" x="300" y="540" class="st1" width="60" height="60"/>
	<rect id="rect_3_6" x="360" y="540" class="st1" width="60" height="60"/>
	<rect id="rect_4_6" x="420" y="540" class="st1" width="60" height="60"/>
	<rect id="rect_5_6" x="480" y="540" class="st1" width="60" height="60"/>
	<rect id="rect_6_6" x="540" y="540" class="st1" width="60" height="60"/>
	<rect id="rect_8_6" x="660" y="540" class="st1" width="60" height="60"/>
	<rect id="rect_10_6" x="780" y="540" class="st1" width="60" height="60"/>
	<rect id="rect_12_6" x="900" y="540" class="st1" width="60" height="60"/>
	<rect id="rect_14_6" x="1020" y="540" class="st1" width="60" height="60"/>
	<rect id="rect_16_6" x="1140" y="540" class="st1" width="60" height="60"/>
	<rect id="rect_18_6" x="1260" y="540" class="st1" width="60" height="60"/>
	<rect id="rect_20_6" x="1380" y="540" class="st1" width="60" height="60"/>
	<rect id="rect_22_6" x="1500" y="540" class="st1" width="60" height="60"/>
	<rect id="rect_23_6" x="1560" y="540" class="st1" width="60" height="60"/>
	<rect id="rect_24_6" x="1620" y="540" class="st1" width="60" height="60"/>
	<rect id="rect_25_6" x="1680" y="540" class="st1" width="60" height="60"/>
	<rect id="rect_26_6" x="1740" y="540" class="st1" width="60" height="60"/>
	<rect id="rect_27_6" x="1800" y="540" class="st1" width="60" height="60"/>
	<rect id="rect_28_6" x="1860" y="540" class="st1" width="60" height="60"/>
	<rect id="rect_8_7" x="660" y="600" class="st1" width="60" height="60"/>
	<rect id="rect_9_7" x="720" y="600" class="st1" width="60" height="60"/>
	<rect id="rect_11_7" x="840" y="600" class="st1" width="60" height="60"/>
	<rect id="rect_12_7" x="900" y="600" class="st1" width="60" height="60"/>
	<rect id="rect_14_7" x="1020" y="600" class="st1" width="60" height="60"/>
	<rect id="rect_17_7" x="1200" y="600" class="st1" width="60" height="60"/>
	<rect id="rect_18_7" x="1260" y="600" class="st1" width="60" height="60"/>
	<rect id="rect_2_8" x="300" y="660" class="st1" width="60" height="60"/>
	<rect id="rect_3_8" x="360" y="660" class="st1" width="60" height="60"/>
	<rect id="rect_4_8" x="420" y="660" class="st1" width="60" height="60"/>
	<rect id="rect_6_8" x="540" y="660" class="st1" width="60" height="60"/>
	<rect id="rect_8_8" x="660" y="660" class="st1" width="60" height="60"/>
	<rect id="rect_9_8" x="720" y="660" class="st1" width="60" height="60"/>
	<rect id="rect_10_8" x="780" y="660" class="st1" width="60" height="60"/>
	<rect id="rect_12_8" x="900" y="660" class="st1" width="60" height="60"/>
	<rect id="rect_14_8" x="1020" y="660" class="st1" width="60" height="60"/>
	<rect id="rect_16_8" x="1140" y="660" class="st1" width="60" height="60"/>
	<rect id="rect_19_8" x="1320" y="660" class="st1" width="60" height="60"/>
	<rect id="rect_21_8" x="1440" y="660" class="st1" width="60" height="60"/>
	<rect id="rect_22_8" x="1500" y="660" class="st1" width="60" height="60"/>
	<rect id="rect_23_8" x="1560" y="660" class="st1" width="60" height="60"/>
	<rect id="rect_26_8" x="1740" y="660" class="st1" width="60" height="60"/>
	<rect id="rect_27_8" x="1800" y="660" class="st1" width="60" height="60"/>
	<rect id="rect_28_8" x="1860" y="660" class="st1" width="60" height="60"/>
	<rect id="rect_1_9" x="240" y="720" class="st1" width="60" height="60"/>
	<rect id="rect_2_9" x="300" y="720" class="st1" width="60" height="60"/>
	<rect id="rect_4_9" x="420" y="720" class="st1" width="60" height="60"/>
	<rect id="rect_7_9" x="600" y="720" class="st1" width="60" height="60"/>
	<rect id="rect_11_9" x="840" y="720" class="st1" width="60" height="60"/>
	<rect id="rect_12_9" x="900" y="720" class="st1" width="60" height="60"/>
	<rect id="rect_13_9" x="960" y="720" class="st1" width="60" height="60"/>
	<rect id="rect_15_9" x="1080" y="720" class="st1" width="60" height="60"/>
	<rect id="rect_16_9" x="1140" y="720" class="st1" width="60" height="60"/>
	<rect id="rect_18_9" x="1260" y="720" class="st1" width="60" height="60"/>
	<rect id="rect_20_9" x="1380" y="720" class="st1" width="60" height="60"/>
	<rect id="rect_21_9" x="1440" y="720" class="st1" width="60" height="60"/>
	<rect id="rect_23_9" x="1560" y="720" class="st1" width="60" height="60"/>
	<rect id="rect_26_9" x="1740" y="720" class="st1" width="60" height="60"/>
	<rect id="rect_27_9" x="1800" y="720" class="st1" width="60" height="60"/>
	<rect id="rect_28_9" x="1860" y="720" class="st1" width="60" height="60"/>
	<rect id="rect_1_10" x="240" y="780" class="st1" width="60" height="60"/>
	<rect id="rect_3_10" x="360" y="780" class="st1" width="60" height="60"/>
	<rect id="rect_4_10" x="420" y="780" class="st1" width="60" height="60"/>
	<rect id="rect_6_10" x="540" y="780" class="st1" width="60" height="60"/>
	<rect id="rect_7_10" x="600" y="780" class="st1" width="60" height="60"/>
	<rect id="rect_10_10" x="780" y="780" class="st1" width="60" height="60"/>
	<rect id="rect_11_10" x="840" y="780" class="st1" width="60" height="60"/>
	<rect id="rect_12_10" x="900" y="780" class="st1" width="60" height="60"/>
	<rect id="rect_13_10" x="960" y="780" class="st1" width="60" height="60"/>
	<rect id="rect_14_10" x="1020" y="780" class="st1" width="60" height="60"/>
	<rect id="rect_15_10" x="1080" y="780" class="st1" width="60" height="60"/>
	<rect id="rect_17_10" x="1200" y="780" class="st1" width="60" height="60"/>
	<rect id="rect_19_10" x="1320" y="780" class="st1" width="60" height="60"/>
	<rect id="rect_21_10" x="1440" y="780" class="st1" width="60" height="60"/>
	<rect id="rect_25_10" x="1680" y="780" class="st1" width="60" height="60"/>
	<rect id="rect_0_11" x="180" y="840" class="st1" width="60" height="60"/>
	<rect id="rect_1_11" x="240" y="840" class="st1" width="60" height="60"/>
	<rect id="rect_2_11" x="300" y="840" class="st1" width="60" height="60"/>
	<rect id="rect_3_11" x="360" y="840" class="st1" width="60" height="60"/>
	<rect id="rect_4_11" x="420" y="840" class="st1" width="60" height="60"/>
	<rect id="rect_5_11" x="480" y="840" class="st1" width="60" height="60"/>
	<rect id="rect_9_11" x="720" y="840" class="st1" width="60" height="60"/>
	<rect id="rect_11_11" x="840" y="840" class="st1" width="60" height="60"/>
	<rect id="rect_13_11" x="960" y="840" class="st1" width="60" height="60"/>
	<rect id="rect_17_11" x="1200" y="840" class="st1" width="60" height="60"/>
	<rect id="rect_18_11" x="1260" y="840" class="st1" width="60" height="60"/>
	<rect id="rect_19_11" x="1320" y="840" class="st1" width="60" height="60"/>
	<rect id="rect_20_11" x="1380" y="840" class="st1" width="60" height="60"/>
	<rect id="rect_22_11" x="1500" y="840" class="st1" width="60" height="60"/>
	<rect id="rect_23_11" x="1560" y="840" class="st1" width="60" height="60"/>
	<rect id="rect_27_11" x="1800" y="840" class="st1" width="60" height="60"/>
	<rect id="rect_0_12" x="180" y="900" class="st1" width="60" height="60"/>
	<rect id="rect_1_12" x="240" y="900" class="st1" width="60" height="60"/>
	<rect id="rect_3_12" x="360" y="900" class="st1" width="60" height="60"/>
	<rect id="rect_6_12" x="540" y="900" class="st1" width="60" height="60"/>
	<rect id="rect_8_12" x="660" y="900" class="st1" width="60" height="60"/>
	<rect id="rect_9_12" x="720" y="900" class="st1" width="60" height="60"/>
	<rect id="rect_10_12" x="780" y="900" class="st1" width="60" height="60"/>
	<rect id="rect_15_12" x="1080" y="900" class="st1" width="60" height="60"/>
	<rect id="rect_17_12" x="1200" y="900" class="st1" width="60" height="60"/>
	<rect id="rect_19_12" x="1320" y="900" class="st1" width="60" height="60"/>
	<rect id="rect_20_12" x="1380" y="900" class="st1" width="60" height="60"/>
	<rect id="rect_21_12" x="1440" y="900" class="st1" width="60" height="60"/>
	<rect id="rect_23_12" x="1560" y="900" class="st1" width="60" height="60"/>
	<rect id="rect_25_12" x="1680" y="900" class="st1" width="60" height="60"/>
	<rect id="rect_26_12" x="1740" y="900" class="st1" width="60" height="60"/>
	<rect id="rect_1_13" x="240" y="960" class="st1" width="60" height="60"/>
	<rect id="rect_9_13" x="720" y="960" class="st1" width="60" height="60"/>
	<rect id="rect_11_13" x="840" y="960" class="st1" width="60" height="60"/>
	<rect id="rect_12_13" x="900" y="960" class="st1" width="60" height="60"/>
	<rect id="rect_13_13" x="960" y="960" class="st1" width="60" height="60"/>
	<rect id="rect_14_13" x="1020" y="960" class="st1" width="60" height="60"/>
	<rect id="rect_16_13" x="1140" y="960" class="st1" width="60" height="60"/>
	<rect id="rect_19_13" x="1320" y="960" class="st1" width="60" height="60"/>
	<rect id="rect_22_13" x="1500" y="960" class="st1" width="60" height="60"/>
	<rect id="rect_24_13" x="1620" y="960" class="st1" width="60" height="60"/>
	<rect id="rect_25_13" x="1680" y="960" class="st1" width="60" height="60"/>
	<rect id="rect_28_13" x="1860" y="960" class="st1" width="60" height="60"/>
	<rect id="rect_0_14" x="180" y="1020" class="st1" width="60" height="60"/>
	<rect id="rect_2_14" x="300" y="1020" class="st1" width="60" height="60"/>
	<rect id="rect_4_14" x="420" y="1020" class="st1" width="60" height="60"/>
	<rect id="rect_5_14" x="480" y="1020" class="st1" width="60" height="60"/>
	<rect id="rect_6_14" x="540" y="1020" class="st1" width="60" height="60"/>
	<rect id="rect_7_14" x="600" y="1020" class="st1" width="60" height="60"/>
	<rect id="rect_8_14" x="660" y="1020" class="st1" width="60" height="60"/>
	<rect id="rect_16_14" x="1140" y="1020" class="st1" width="60" height="60"/>
	<rect id="rect_17_14" x="1200" y="1020" class="st1" width="60" height="60"/>
	<rect id="rect_18_14" x="1260" y="1020" class="st1" width="60" height="60"/>
	<rect id="rect_21_14" x="1440" y="1020" class="st1" width="60" height="60"/>
	<rect id="rect_23_14" x="1560" y="1020" class="st1" width="60" height="60"/>
	<rect id="rect_25_14" x="1680" y="1020" class="st1" width="60" height="60"/>
	<rect id="rect_27_14" x="1800" y="1020" class="st1" width="60" height="60"/>
	<rect id="rect_8_15" x="660" y="1080" class="st1" width="60" height="60"/>
	<rect id="rect_13_15" x="960" y="1080" class="st1" width="60" height="60"/>
	<rect id="rect_14_15" x="1020" y="1080" class="st1" width="60" height="60"/>
	<rect id="rect_15_15" x="1080" y="1080" class="st1" width="60" height="60"/>
	<rect id="rect_17_15" x="1200" y="1080" class="st1" width="60" height="60"/>
	<rect id="rect_19_15" x="1320" y="1080" class="st1" width="60" height="60"/>
	<rect id="rect_25_15" x="1680" y="1080" class="st1" width="60" height="60"/>
	<rect id="rect_1_16" x="240" y="1140" class="st1" width="60" height="60"/>
	<rect id="rect_2_16" x="300" y="1140" class="st1" width="60" height="60"/>
	<rect id="rect_6_16" x="540" y="1140" class="st1" width="60" height="60"/>
	<rect id="rect_12_16" x="900" y="1140" class="st1" width="60" height="60"/>
	<rect id="rect_14_16" x="1020" y="1140" class="st1" width="60" height="60"/>
	<rect id="rect_16_16" x="1140" y="1140" class="st1" width="60" height="60"/>
	<rect id="rect_17_16" x="1200" y="1140" class="st1" width="60" height="60"/>
	<rect id="rect_18_16" x="1260" y="1140" class="st1" width="60" height="60"/>
	<rect id="rect_20_16" x="1380" y="1140" class="st1" width="60" height="60"/>
	<rect id="rect_21_16" x="1440" y="1140" class="st1" width="60" height="60"/>
	<rect id="rect_24_16" x="1620" y="1140" class="st1" width="60" height="60"/>
	<rect id="rect_26_16" x="1740" y="1140" class="st1" width="60" height="60"/>
	<rect id="rect_27_16" x="1800" y="1140" class="st1" width="60" height="60"/>
	<rect id="rect_0_17" x="180" y="1200" class="st1" width="60" height="60"/>
	<rect id="rect_1_17" x="240" y="1200" class="st1" width="60" height="60"/>
	<rect id="rect_2_17" x="300" y="1200" class="st1" width="60" height="60"/>
	<rect id="rect_3_17" x="360" y="1200" class="st1" width="60" height="60"/>
	<rect id="rect_4_17" x="420" y="1200" class="st1" width="60" height="60"/>
	<rect id="rect_5_17" x="480" y="1200" class="st1" width="60" height="60"/>
	<rect id="rect_7_17" x="600" y="1200" class="st1" width="60" height="60"/>
	<rect id="rect_10_17" x="780" y="1200" class="st1" width="60" height="60"/>
	<rect id="rect_12_17" x="900" y="1200" class="st1" width="60" height="60"/>
	<rect id="rect_16_17" x="1140" y="1200" class="st1" width="60" height="60"/>
	<rect id="rect_17_17" x="1200" y="1200" class="st1" width="60" height="60"/>
	<rect id="rect_24_17" x="1620" y="1200" class="st1" width="60" height="60"/>
	<rect id="rect_25_17" x="1680" y="1200" class="st1" width="60" height="60"/>
	<rect id="rect_28_17" x="1860" y="1200" class="st1" width="60" height="60"/>
	<rect id="rect_0_18" x="180" y="1260" class="st1" width="60" height="60"/>
	<rect id="rect_4_18" x="420" y="1260" class="st1" width="60" height="60"/>
	<rect id="rect_6_18" x="540" y="1260" class="st1" width="60" height="60"/>
	<rect id="rect_9_18" x="720" y="1260" class="st1" width="60" height="60"/>
	<rect id="rect_10_18" x="780" y="1260" class="st1" width="60" height="60"/>
	<rect id="rect_12_18" x="900" y="1260" class="st1" width="60" height="60"/>
	<rect id="rect_15_18" x="1080" y="1260" class="st1" width="60" height="60"/>
	<rect id="rect_16_18" x="1140" y="1260" class="st1" width="60" height="60"/>
	<rect id="rect_17_18" x="1200" y="1260" class="st1" width="60" height="60"/>
	<rect id="rect_18_18" x="1260" y="1260" class="st1" width="60" height="60"/>
	<rect id="rect_20_18" x="1380" y="1260" class="st1" width="60" height="60"/>
	<rect id="rect_24_18" x="1620" y="1260" class="st1" width="60" height="60"/>
	<rect id="rect_25_18" x="1680" y="1260" class="st1" width="60" height="60"/>
	<rect id="rect_26_18" x="1740" y="1260" class="st1" width="60" height="60"/>
	<rect id="rect_0_19" x="180" y="1320" class="st1" width="60" height="60"/>
	<rect id="rect_2_19" x="300" y="1320" class="st1" width="60" height="60"/>
	<rect id="rect_3_19" x="360" y="1320" class="st1" width="60" height="60"/>
	<rect id="rect_4_19" x="420" y="1320" class="st1" width="60" height="60"/>
	<rect id="rect_5_19" x="480" y="1320" class="st1" width="60" height="60"/>
	<rect id="rect_12_19" x="900" y="1320" class="st1" width="60" height="60"/>
	<rect id="rect_17_19" x="1200" y="1320" class="st1" width="60" height="60"/>
	<rect id="rect_22_19" x="1500" y="1320" class="st1" width="60" height="60"/>
	<rect id="rect_24_19" x="1620" y="1320" class="st1" width="60" height="60"/>
	<rect id="rect_0_20" x="180" y="1380" class="st1" width="60" height="60"/>
	<rect id="rect_2_20" x="300" y="1380" class="st1" width="60" height="60"/>
	<rect id="rect_3_20" x="360" y="1380" class="st1" width="60" height="60"/>
	<rect id="rect_4_20" x="420" y="1380" class="st1" width="60" height="60"/>
	<rect id="rect_5_20" x="480" y="1380" class="st1" width="60" height="60"/>
	<rect id="rect_6_20" x="540" y="1380" class="st1" width="60" height="60"/>
	<rect id="rect_8_20" x="660" y="1380" class="st1" width="60" height="60"/>
	<rect id="rect_9_20" x="720" y="1380" class="st1" width="60" height="60"/>
	<rect id="rect_10_20" x="780" y="1380" class="st1" width="60" height="60"/>
	<rect id="rect_11_20" x="840" y="1380" class="st1" width="60" height="60"/>
	<rect id="rect_12_20" x="900" y="1380" class="st1" width="60" height="60"/>
	<rect id="rect_13_20" x="960" y="1380" class="st1" width="60" height="60"/>
	<rect id="rect_15_20" x="1080" y="1380" class="st1" width="60" height="60"/>
	<rect id="rect_16_20" x="1140" y="1380" class="st1" width="60" height="60"/>
	<rect id="rect_18_20" x="1260" y="1380" class="st1" width="60" height="60"/>
	<rect id="rect_20_20" x="1380" y="1380" class="st1" width="60" height="60"/>
	<rect id="rect_21_20" x="1440" y="1380" class="st1" width="60" height="60"/>
	<rect id="rect_22_20" x="1500" y="1380" class="st1" width="60" height="60"/>
	<rect id="rect_23_20" x="1560" y="1380" class="st1" width="60" height="60"/>
	<rect id="rect_24_20" x="1620" y="1380" class="st1" width="60" height="60"/>
	<rect id="rect_25_20" x="1680" y="1380" class="st1" width="60" height="60"/>
	<rect id="rect_26_20" x="1740" y="1380" class="st1" width="60" height="60"/>
	<rect id="rect_27_20" x="1800" y="1380" class="st1" width="60" height="60"/>
	<rect id="rect_8_21" x="660" y="1440" class="st1" width="60" height="60"/>
	<rect id="rect_9_21" x="720" y="1440" class="st1" width="60" height="60"/>
	<rect id="rect_14_21" x="1020" y="1440" class="st1" width="60" height="60"/>
	<rect id="rect_19_21" x="1320" y="1440" class="st1" width="60" height="60"/>
	<rect id="rect_20_21" x="1380" y="1440" class="st1" width="60" height="60"/>
	<rect id="rect_24_21" x="1620" y="1440" class="st1" width="60" height="60"/>
	<rect id="rect_25_21" x="1680" y="1440" class="st1" width="60" height="60"/>
	<rect id="rect_26_21" x="1740" y="1440" class="st1" width="60" height="60"/>
	<rect id="rect_28_21" x="1860" y="1440" class="st1" width="60" height="60"/>
	<rect id="rect_0_22" x="180" y="1500" class="st1" width="60" height="60"/>
	<rect id="rect_1_22" x="240" y="1500" class="st1" width="60" height="60"/>
	<rect id="rect_2_22" x="300" y="1500" class="st1" width="60" height="60"/>
	<rect id="rect_3_22" x="360" y="1500" class="st1" width="60" height="60"/>
	<rect id="rect_4_22" x="420" y="1500" class="st1" width="60" height="60"/>
	<rect id="rect_5_22" x="480" y="1500" class="st1" width="60" height="60"/>
	<rect id="rect_6_22" x="540" y="1500" class="st1" width="60" height="60"/>
	<rect id="rect_12_22" x="900" y="1500" class="st1" width="60" height="60"/>
	<rect id="rect_14_22" x="1020" y="1500" class="st1" width="60" height="60"/>
	<rect id="rect_17_22" x="1200" y="1500" class="st1" width="60" height="60"/>
	<rect id="rect_19_22" x="1320" y="1500" class="st1" width="60" height="60"/>
	<rect id="rect_20_22" x="1380" y="1500" class="st1" width="60" height="60"/>
	<rect id="rect_22_22" x="1500" y="1500" class="st1" width="60" height="60"/>
	<rect id="rect_24_22" x="1620" y="1500" class="st1" width="60" height="60"/>
	<rect id="rect_27_22" x="1800" y="1500" class="st1" width="60" height="60"/>
	<rect id="rect_0_23" x="180" y="1560" class="st1" width="60" height="60"/>
	<rect id="rect_6_23" x="540" y="1560" class="st1" width="60" height="60"/>
	<rect id="rect_10_23" x="780" y="1560" class="st1" width="60" height="60"/>
	<rect id="rect_12_23" x="900" y="1560" class="st1" width="60" height="60"/>
	<rect id="rect_13_23" x="960" y="1560" class="st1" width="60" height="60"/>
	<rect id="rect_15_23" x="1080" y="1560" class="st1" width="60" height="60"/>
	<rect id="rect_17_23" x="1200" y="1560" class="st1" width="60" height="60"/>
	<rect id="rect_18_23" x="1260" y="1560" class="st1" width="60" height="60"/>
	<rect id="rect_20_23" x="1380" y="1560" class="st1" width="60" height="60"/>
	<rect id="rect_24_23" x="1620" y="1560" class="st1" width="60" height="60"/>
	<rect id="rect_27_23" x="1800" y="1560" class="st1" width="60" height="60"/>
	<rect id="rect_0_24" x="180" y="1620" class="st1" width="60" height="60"/>
	<rect id="rect_2_24" x="300" y="1620" class="st1" width="60" height="60"/>
	<rect id="rect_3_24" x="360" y="1620" class="st1" width="60" height="60"/>
	<rect id="rect_4_24" x="420" y="1620" class="st1" width="60" height="60"/>
	<rect id="rect_6_24" x="540" y="1620" class="st1" width="60" height="60"/>
	<rect id="rect_8_24" x="660" y="1620" class="st1" width="60" height="60"/>
	<rect id="rect_10_24" x="780" y="1620" class="st1" width="60" height="60"/>
	<rect id="rect_11_24" x="840" y="1620" class="st1" width="60" height="60"/>
	<rect id="rect_13_24" x="960" y="1620" class="st1" width="60" height="60"/>
	<rect id="rect_15_24" x="1080" y="1620" class="st1" width="60" height="60"/>
	<rect id="rect_16_24" x="1140" y="1620" class="st1" width="60" height="60"/>
	<rect id="rect_20_24" x="1380" y="1620" class="st1" width="60" height="60"/>
	<rect id="rect_21_24" x="1440" y="1620" class="st1" width="60" height="60"/>
	<rect id="rect_22_24" x="1500" y="1620" class="st1" width="60" height="60"/>
	<rect id="rect_23_24" x="1560" y="1620" class="st1" width="60" height="60"/>
	<rect id="rect_24_24" x="1620" y="1620" class="st1" width="60" height="60"/>
	<rect id="rect_25_24" x="1680" y="1620" class="st1" width="60" height="60"/>
	<rect id="rect_26_24" x="1740" y="1620" class="st1" width="60" height="60"/>
	<rect id="rect_0_25" x="180" y="1680" class="st1" width="60" height="60"/>
	<rect id="rect_2_25" x="300" y="1680" class="st1" width="60" height="60"/>
	<rect id="rect_3_25" x="360" y="1680" class="st1" width="60" height="60"/>
	<rect id="rect_4_25" x="420" y="1680" class="st1" width="60" height="60"/>
	<rect id="rect_6_25" x="540" y="1680" class="st1" width="60" height="60"/>
	<rect id="rect_8_25" x="660" y="1680" class="st1" width="60" height="60"/>
	<rect id="rect_9_25" x="720" y="1680" class="st1" width="60" height="60"/>
	<rect id="rect_10_25" x="780" y="1680" class="st1" width="60" height="60"/>
	<rect id="rect_12_25" x="900" y="1680" class="st1" width="60" height="60"/>
	<rect id="rect_15_25" x="1080" y="1680" class="st1" width="60" height="60"/>
	<rect id="rect_16_25" x="1140" y="1680" class="st1" width="60" height="60"/>
	<rect id="rect_19_25" x="1320" y="1680" class="st1" width="60" height="60"/>
	<rect id="rect_21_25" x="1440" y="1680" class="st1" width="60" height="60"/>
	<rect id="rect_26_25" x="1740" y="1680" class="st1" width="60" height="60"/>
	<rect id="rect_0_26" x="180" y="1740" class="st1" width="60" height="60"/>
	<rect id="rect_2_26" x="300" y="1740" class="st1" width="60" height="60"/>
	<rect id="rect_3_26" x="360" y="1740" class="st1" width="60" height="60"/>
	<rect id="rect_4_26" x="420" y="1740" class="st1" width="60" height="60"/>
	<rect id="rect_6_26" x="540" y="1740" class="st1" width="60" height="60"/>
	<rect id="rect_8_26" x="660" y="1740" class="st1" width="60" height="60"/>
	<rect id="rect_11_26" x="840" y="1740" class="st1" width="60" height="60"/>
	<rect id="rect_12_26" x="900" y="1740" class="st1" width="60" height="60"/>
	<rect id="rect_13_26" x="960" y="1740" class="st1" width="60" height="60"/>
	<rect id="rect_14_26" x="1020" y="1740" class="st1" width="60" height="60"/>
	<rect id="rect_16_26" x="1140" y="1740" class="st1" width="60" height="60"/>
	<rect id="rect_17_26" x="1200" y="1740" class="st1" width="60" height="60"/>
	<rect id="rect_19_26" x="1320" y="1740" class="st1" width="60" height="60"/>
	<rect id="rect_22_26" x="1500" y="1740" class="st1" width="60" height="60"/>
	<rect id="rect_24_26" x="1620" y="1740" class="st1" width="60" height="60"/>
	<rect id="rect_27_26" x="1800" y="1740" class="st1" width="60" height="60"/>
	<rect id="rect_0_27" x="180" y="1800" class="st1" width="60" height="60"/>
	<rect id="rect_6_27" x="540" y="1800" class="st1" width="60" height="60"/>
	<rect id="rect_9_27" x="720" y="1800" class="st1" width="60" height="60"/>
	<rect id="rect_10_27" x="780" y="1800" class="st1" width="60" height="60"/>
	<rect id="rect_12_27" x="900" y="1800" class="st1" width="60" height="60"/>
	<rect id="rect_15_27" x="1080" y="1800" class="st1" width="60" height="60"/>
	<rect id="rect_18_27" x="1260" y="1800" class="st1" width="60" height="60"/>
	<rect id="rect_22_27" x="1500" y="1800" class="st1" width="60" height="60"/>
	<rect id="rect_27_27" x="1800" y="1800" class="st1" width="60" height="60"/>
	<rect id="rect_0_28" x="180" y="1860" class="st1" width="60" height="60"/>
	<rect id="rect_1_28" x="240" y="1860" class="st1" width="60" height="60"/>
	<rect id="rect_2_28" x="300" y="1860" class="st1" width="60" height="60"/>
	<rect id="rect_3_28" x="360" y="1860" class="st1" width="60" height="60"/>
	<rect id="rect_4_28" x="420" y="1860" class="st1" width="60" height="60"/>
	<rect id="rect_5_28" x="480" y="1860" class="st1" width="60" height="60"/>
	<rect id="rect_6_28" x="540" y="1860" class="st1" width="60" height="60"/>
	<rect id="rect_14_28" x="1020" y="1860" class="st1" width="60" height="60"/>
	<rect id="rect_16_28" x="1140" y="1860" class="st1" width="60" height="60"/>
	<rect id="rect_19_28" x="1320" y="1860" class="st1" width="60" height="60"/>
	<rect id="rect_20_28" x="1380" y="1860" class="st1" width="60" height="60"/>
	<rect id="rect_21_28" x="1440" y="1860" class="st1" width="60" height="60"/>
	<rect id="rect_22_28" x="1500" y="1860" class="st1" width="60" height="60"/>
	<rect id="rect_25_28" x="1680" y="1860" class="st1" width="60" height="60"/>
	<rect id="rect_26_28" x="1740" y="1860" class="st1" width="60" height="60"/>
</g>
<rect id="framebar" x="828" y="828" class="st0" width="443" height="443"/>
<g id="emblema">
	<polygon id="truba" class="st1" points="957.3,938.2 906.2,983.3 906,887.9 957.3,887.9 	"/>
	<g id="XMLID_3_">
		<g>
			<polygon class="st1" points="1059.8,1048.7 1059.8,1079.3 1020.1,1106.2 1020.1,1084.1 986.5,1084.1 986.5,1183.1 945.8,1183.1 
				945.8,1084.1 883.4,1084.1 923.5,1048.7 			"/>
		</g>
	</g>
	<g id="XMLID_2_">
		<g>
			<polygon class="st1" points="1193.9,1180.3 1193.9,1183.1 1136.8,1183.1 1062.2,1132.8 1059.8,1132.8 1059.8,1183.1 
				1020.1,1183.1 1020.1,1126.4 1134.8,1048.7 1179,1048.7 1185.6,1054.5 1096.7,1114.7 			"/>
		</g>
	</g>
	<g id="XMLID_1_">
		<g>
			<polygon class="st1" points="1258.4,1054.8 1230.8,1086.1 1048.9,925.6 867.2,1085.9 839.7,1054.6 1048.9,870 			"/>
		</g>
	</g>
</g>
<g id="texhokohtpovp">
	<g>
		<path class="st1" d="M841.7,1222v-19h-9.2v-6.4h28.3v6.4h-9.2v19H841.7z"/>
		<path class="st1" d="M863.7,1222v-25.4h27v6.2h-17.1v3h13.8v6.3h-13.8v3.3h17.9v6.6H863.7L863.7,1222z"/>
		<path class="st1" d="M890.9,1222l11.3-13.4l-9.7-12h11.9l3.5,5.5l3.8-5.5h11.8l-9.8,12l11.1,13.4h-12.3l-4.5-6.8l-4.7,6.8H890.9z"
			/>
		<path class="st1" d="M926.4,1222v-25.4h9.8v8.8h11.3v-8.8h9.8v25.4h-9.8v-10.3h-11.3v10.3H926.4z"/>
		<path class="st1" d="M961.4,1209.3c0-4.4,1.5-7.8,4.3-10c2.9-2.3,7.1-3.4,12.8-3.4c5.7,0,9.9,1.1,12.8,3.4c2.9,2.3,4.3,5.6,4.3,10
			s-1.5,7.7-4.3,10s-7.1,3.4-12.8,3.4c-5.7,0-9.9-1.1-12.8-3.4C962.9,1217,961.4,1213.7,961.4,1209.3z M972,1209.3
			c0,2.2,0.6,3.9,1.7,5.1c1.1,1.2,2.7,1.7,4.9,1.7c2.1,0,3.7-0.6,4.9-1.7c1.1-1.2,1.7-2.9,1.7-5.1c0-2.2-0.6-3.9-1.7-5.1
			c-1.1-1.2-2.7-1.8-4.9-1.8c-2.1,0-3.7,0.6-4.9,1.8C972.6,1205.3,972,1207,972,1209.3z"/>
		<path class="st1" d="M999.7,1222v-25.4h9.8v8.8l9.1-8.8h13.3l-10.6,9.2l11.7,16.2h-12.3l-6.8-10.3l-4.3,3.5v6.8H999.7z"/>
		<path class="st1" d="M1032,1209.3c0-4.4,1.5-7.8,4.3-10c2.9-2.3,7.1-3.4,12.8-3.4c5.7,0,9.9,1.1,12.8,3.4c2.9,2.3,4.3,5.6,4.3,10
			s-1.5,7.7-4.3,10c-2.9,2.3-7.1,3.4-12.8,3.4c-5.7,0-9.9-1.1-12.8-3.4C1033.5,1217,1032,1213.7,1032,1209.3z M1042.6,1209.3
			c0,2.2,0.6,3.9,1.7,5.1c1.1,1.2,2.7,1.7,4.9,1.7c2.1,0,3.7-0.6,4.9-1.7c1.1-1.2,1.7-2.9,1.7-5.1c0-2.2-0.6-3.9-1.7-5.1
			c-1.1-1.2-2.7-1.8-4.9-1.8c-2.1,0-3.7,0.6-4.9,1.8C1043.2,1205.3,1042.6,1207,1042.6,1209.3z"/>
		<path class="st1" d="M1070.4,1222v-25.4h9.8v8.8h11.3v-8.8h9.8v25.4h-9.8v-10.3h-11.3v10.3H1070.4z"/>
		<path class="st1" d="M1113.4,1222v-19h-9.2v-6.4h28.3v6.4h-9.2v19H1113.4z"/>
		<path class="st1" d="M1135.3,1222v-25.4h19c3.6,0,6.4,0.7,8.3,2.1c1.9,1.5,2.9,3.5,2.9,6.1s-1,4.7-2.9,6.1
			c-1.9,1.5-4.7,2.1-8.3,2.1h-9.1v8.9H1135.3L1135.3,1222z M1150.6,1202h-5.4v5.5h5.4c1.6,0,2.7-0.2,3.3-0.6
			c0.6-0.4,0.9-1.1,0.9-2.1c0-1-0.3-1.7-0.9-2.1C1153.3,1202.2,1152.1,1202,1150.6,1202z"/>
		<path class="st1" d="M1167.4,1209.3c0-4.4,1.5-7.8,4.3-10c2.9-2.3,7.1-3.4,12.8-3.4s9.9,1.1,12.8,3.4c2.9,2.3,4.3,5.6,4.3,10
			s-1.5,7.7-4.3,10c-2.9,2.3-7.1,3.4-12.8,3.4s-9.9-1.1-12.8-3.4C1168.9,1217,1167.4,1213.7,1167.4,1209.3z M1178,1209.3
			c0,2.2,0.6,3.9,1.7,5.1c1.1,1.2,2.7,1.7,4.9,1.7s3.7-0.6,4.9-1.7c1.1-1.2,1.7-2.9,1.7-5.1c0-2.2-0.6-3.9-1.7-5.1
			c-1.1-1.2-2.7-1.8-4.9-1.8s-3.7,0.6-4.9,1.8C1178.6,1205.3,1178,1207,1178,1209.3z"/>
	</g>
	<g>
		<path class="st1" d="M1222.3,1196.5l11.7,25.4h-11l-5.7-17l-5.4,17h-11.1l11.2-25.4H1222.3z"/>
		<path class="st1" d="M1245.1,1196.5v8.9h9.1c3.6,0,6.4,0.7,8.3,2.1s2.9,3.5,2.9,6.1c0,2.6-1,4.7-2.9,6.1c-1.9,1.5-4.7,2.1-8.3,2.1
			h-19v-25.4L1245.1,1196.5L1245.1,1196.5z M1253.8,1215.9c0.6-0.4,0.9-1.1,0.9-2.1c0-1-0.3-1.7-0.9-2.1c-0.6-0.4-1.7-0.6-3.3-0.6
			h-5.4v5.5h5.4C1252.1,1216.5,1253.2,1216.3,1253.8,1215.9z"/>
	</g>
</g>
</svg>
